<svg width="32" height="30" viewBox="0 0 32 30" fill="none" xmlns="http://www.w3.org/2000/svg">
<path d="M16.0766 3.1538C15.6523 3.1538 15.2322 3.23737 14.8403 3.39972C14.4483 3.56208 14.0922 3.80005 13.7922 4.10005C13.4922 4.40005 13.2542 4.7562 13.0918 5.14817C12.9295 5.54013 12.8459 5.96024 12.8459 6.3845C12.8459 6.80876 12.9295 7.22887 13.0918 7.62084C13.2542 8.0128 13.4922 8.36895 13.7922 8.66895C14.0922 8.96895 14.4483 9.20692 14.8403 9.36928C15.2322 9.53164 15.6523 9.6152 16.0766 9.6152C16.9334 9.6152 17.7552 9.27483 18.3611 8.66895C18.9669 8.06308 19.3073 7.24134 19.3073 6.3845C19.3073 5.52767 18.9669 4.70593 18.3611 4.10005C17.7552 3.49418 16.9334 3.1538 16.0766 3.1538ZM10.6921 6.3845C10.6921 4.95644 11.2594 3.58687 12.2692 2.57708C13.279 1.56729 14.6485 1 16.0766 1C17.5047 1 18.8742 1.56729 19.884 2.57708C20.8938 3.58687 21.4611 4.95644 21.4611 6.3845C21.4611 7.81256 20.8938 9.18213 19.884 10.1919C18.8742 11.2017 17.5047 11.769 16.0766 11.769C14.6485 11.769 13.279 11.2017 12.2692 10.1919C11.2594 9.18213 10.6921 7.81256 10.6921 6.3845ZM7.4614 17.1535C7.46284 16.7601 7.50304 16.3796 7.58202 16.012L3.39503 17.132C2.98514 17.2419 2.60094 17.4315 2.26436 17.69C1.92778 17.9485 1.64541 18.2707 1.4334 18.6383C1.22139 19.006 1.08389 19.4117 1.02874 19.8325C0.97359 20.2533 1.00188 20.6808 1.112 21.0907L1.94767 24.2115C2.17235 25.0489 2.56326 25.8325 3.09712 26.5157C3.63098 27.1988 4.29687 27.7676 5.05513 28.188C5.81339 28.6084 6.6485 28.872 7.51074 28.9629C8.37297 29.0538 9.24469 28.9703 10.074 28.7173C9.49793 28.1585 9.0028 27.522 8.60292 26.8262C7.5883 26.9242 6.57183 26.6591 5.73422 26.0782C4.8966 25.4974 4.29212 24.6383 4.02824 23.6537L3.19042 20.5307C3.11677 20.2548 3.15572 19.9609 3.2987 19.7137C3.44168 19.4665 3.67698 19.2863 3.95286 19.2125L7.4614 18.2735V17.1535ZM22.2925 28.7797L22.0771 28.7194C22.6522 28.1594 23.1497 27.5241 23.5503 26.8262C24.5649 26.9242 25.5814 26.6591 26.419 26.0782C27.2566 25.4974 27.8611 24.6383 28.125 23.6537L28.9606 20.5307C29.0344 20.2551 28.9957 19.9615 28.8532 19.7143C28.7106 19.4672 28.4758 19.2867 28.2003 19.2125L24.6918 18.2735V17.1535C24.6904 16.7601 24.6502 16.3796 24.5712 16.012L28.756 17.132C29.1661 17.2417 29.5505 17.4311 29.8874 17.6895C30.2242 17.9479 30.5068 18.2701 30.719 18.6377C30.9312 19.0054 31.0689 19.4112 31.1242 19.8321C31.1795 20.253 31.1513 20.6807 31.0412 21.0907L30.2055 24.2115C29.7614 25.8662 28.6783 27.2767 27.1944 28.1329C25.7105 28.9892 23.9473 29.2232 22.2925 28.7797ZM3.1538 9.6152C3.1538 9.04398 3.38072 8.49615 3.78463 8.09224C4.18855 7.68832 4.73638 7.4614 5.3076 7.4614C5.87882 7.4614 6.42665 7.68832 6.83057 8.09224C7.23448 8.49615 7.4614 9.04398 7.4614 9.6152C7.4614 10.1864 7.23448 10.7343 6.83057 11.1382C6.42665 11.5421 5.87882 11.769 5.3076 11.769C4.73638 11.769 4.18855 11.5421 3.78463 11.1382C3.38072 10.7343 3.1538 10.1864 3.1538 9.6152ZM5.3076 5.3076C4.16515 5.3076 3.0695 5.76144 2.26167 6.56927C1.45384 7.3771 1 8.47276 1 9.6152C1 10.7576 1.45384 11.8533 2.26167 12.6611C3.0695 13.469 4.16515 13.9228 5.3076 13.9228C6.45005 13.9228 7.5457 13.469 8.35354 12.6611C9.16137 11.8533 9.6152 10.7576 9.6152 9.6152C9.6152 8.47276 9.16137 7.3771 8.35354 6.56927C7.5457 5.76144 6.45005 5.3076 5.3076 5.3076ZM26.8456 7.4614C26.2744 7.4614 25.7266 7.68832 25.3226 8.09224C24.9187 8.49615 24.6918 9.04398 24.6918 9.6152C24.6918 10.1864 24.9187 10.7343 25.3226 11.1382C25.7266 11.5421 26.2744 11.769 26.8456 11.769C27.4168 11.769 27.9647 11.5421 28.3686 11.1382C28.7725 10.7343 28.9994 10.1864 28.9994 9.6152C28.9994 9.04398 28.7725 8.49615 28.3686 8.09224C27.9647 7.68832 27.4168 7.4614 26.8456 7.4614ZM22.538 9.6152C22.538 8.47276 22.9918 7.3771 23.7997 6.56927C24.6075 5.76144 25.7032 5.3076 26.8456 5.3076C27.9881 5.3076 29.0837 5.76144 29.8915 6.56927C30.6994 7.3771 31.1532 8.47276 31.1532 9.6152C31.1532 10.7576 30.6994 11.8533 29.8915 12.6611C29.0837 13.469 27.9881 13.9228 26.8456 13.9228C25.7032 13.9228 24.6075 13.469 23.7997 12.6611C22.9918 11.8533 22.538 10.7576 22.538 9.6152ZM12.8459 13.9228C11.9891 13.9228 11.1673 14.2632 10.5615 14.8691C9.95558 15.4749 9.6152 16.2967 9.6152 17.1535V22.538C9.6152 24.2517 10.296 25.8952 11.5077 27.1069C12.7195 28.3187 14.3629 28.9994 16.0766 28.9994C17.7903 28.9994 19.4338 28.3187 20.6455 27.1069C21.8573 25.8952 22.538 24.2517 22.538 22.538V17.1535C22.538 16.2967 22.1976 15.4749 21.5918 14.8691C20.9859 14.2632 20.1641 13.9228 19.3073 13.9228H12.8459ZM11.769 17.1535C11.769 16.8679 11.8825 16.594 12.0844 16.392C12.2864 16.1901 12.5603 16.0766 12.8459 16.0766H19.3073C19.5929 16.0766 19.8668 16.1901 20.0688 16.392C20.2707 16.594 20.3842 16.8679 20.3842 17.1535V22.538C20.3842 23.6805 19.9304 24.7761 19.1225 25.5839C18.3147 26.3918 17.2191 26.8456 16.0766 26.8456C14.9342 26.8456 13.8385 26.3918 13.0307 25.5839C12.2228 24.7761 11.769 23.6805 11.769 22.538V17.1535Z" fill="white" stroke="white" stroke-width="0.25"/>
</svg>
