<svg width="26" height="28" viewBox="0 0 26 28" fill="none" xmlns="http://www.w3.org/2000/svg">
<path d="M4 24.0286H8.5V16.6C8.5 16.179 8.644 15.8264 8.932 15.5422C9.22 15.2579 9.576 15.1153 10 15.1143H16C16.425 15.1143 16.7815 15.2569 17.0695 15.5422C17.3575 15.8274 17.501 16.18 17.5 16.6V24.0286H22V10.6571L13 3.97143L4 10.6571V24.0286ZM1 24.0286V10.6571C1 10.1867 1.1065 9.74095 1.3195 9.32C1.5325 8.89905 1.826 8.55238 2.2 8.28L11.2 1.59429C11.725 1.1981 12.325 1 13 1C13.675 1 14.275 1.1981 14.8 1.59429L23.8 8.28C24.175 8.55238 24.469 8.89905 24.682 9.32C24.895 9.74095 25.001 10.1867 25 10.6571V24.0286C25 24.8457 24.706 25.5455 24.118 26.1279C23.53 26.7103 22.824 27.001 22 27H16C15.575 27 15.219 26.8574 14.932 26.5721C14.645 26.2869 14.501 25.9342 14.5 25.5143V18.0857H11.5V25.5143C11.5 25.9352 11.356 26.2883 11.068 26.5736C10.78 26.8589 10.424 27.001 10 27H4C3.175 27 2.469 26.7093 1.882 26.1279C1.295 25.5465 1.001 24.8467 1 24.0286Z" fill="white" stroke="white"/>
</svg>
