<svg width="21" height="28" viewBox="0 0 21 28" fill="none" xmlns="http://www.w3.org/2000/svg">
<path d="M2.625 28C1.90312 28 1.28537 27.7261 0.77175 27.1782C0.258125 26.6303 0.000875 25.9709 0 25.2V2.8C0 2.03 0.25725 1.37107 0.77175 0.8232C1.28625 0.275333 1.904 0.000933333 2.625 0H18.375C19.0969 0 19.7151 0.2744 20.2296 0.8232C20.7441 1.372 21.0009 2.03093 21 2.8V25.2C21 25.97 20.7432 26.6294 20.2296 27.1782C19.7159 27.727 19.0977 28.0009 18.375 28H2.625ZM2.625 25.2H18.375V2.8H15.75V12.6L12.4687 10.5L9.1875 12.6V2.8H2.625V25.2Z" fill="white"/>
</svg>
