<svg width="29" height="29" viewBox="0 0 29 29" fill="none" xmlns="http://www.w3.org/2000/svg">
<path d="M2 23.7777C2 22.1274 2.65555 20.5448 3.82245 19.3779C4.98934 18.211 6.57199 17.5554 8.22222 17.5554H20.6667C22.3169 17.5554 23.8995 18.211 25.0664 19.3779C26.2333 20.5448 26.8889 22.1274 26.8889 23.7777C26.8889 24.6028 26.5611 25.3941 25.9777 25.9776C25.3942 26.561 24.6029 26.8888 23.7778 26.8888H5.11111C4.28599 26.8888 3.49467 26.561 2.91122 25.9776C2.32778 25.3941 2 24.6028 2 23.7777Z" stroke="white" stroke-width="2.5" stroke-linejoin="round"/>
<path d="M14.4445 11.3332C17.0218 11.3332 19.1112 9.24389 19.1112 6.66656C19.1112 4.08923 17.0218 1.99989 14.4445 1.99989C11.8672 1.99989 9.77783 4.08923 9.77783 6.66656C9.77783 9.24389 11.8672 11.3332 14.4445 11.3332Z" stroke="white" stroke-width="2.5"/>
</svg>
