<svg width="30" height="24" viewBox="0 0 30 24" fill="none" xmlns="http://www.w3.org/2000/svg">
<path fill-rule="evenodd" clip-rule="evenodd" d="M1.07417 1.43051e-06C0.789281 1.43051e-06 0.516062 0.126204 0.314616 0.350846C0.113171 0.575487 0 0.880166 0 1.19786V3.59357C0 3.91126 0.113171 4.21594 0.314616 4.44058C0.516062 4.66522 0.789281 4.79142 1.07417 4.79142H3.2225C3.50739 4.79142 3.78061 4.66522 3.98206 4.44058C4.1835 4.21594 4.29667 3.91126 4.29667 3.59357V1.19786C4.29667 0.880166 4.1835 0.575487 3.98206 0.350846C3.78061 0.126204 3.50739 1.43051e-06 3.2225 1.43051e-06H1.07417ZM3.2225 1.19786H1.07417V3.59357H3.2225V1.19786Z" fill="white"/>
<path d="M7.51929 2.3957C7.51929 2.07801 7.63246 1.77333 7.8339 1.54869C8.03535 1.32405 8.30857 1.19785 8.59346 1.19785H27.9285C28.2134 1.19785 28.4866 1.32405 28.688 1.54869C28.8895 1.77333 29.0026 2.07801 29.0026 2.3957C29.0026 2.71339 28.8895 3.01807 28.688 3.24271C28.4866 3.46736 28.2134 3.59356 27.9285 3.59356H8.59346C8.30857 3.59356 8.03535 3.46736 7.8339 3.24271C7.63246 3.01807 7.51929 2.71339 7.51929 2.3957ZM8.59346 10.7807C8.30857 10.7807 8.03535 10.9069 7.8339 11.1315C7.63246 11.3562 7.51929 11.6609 7.51929 11.9785C7.51929 12.2962 7.63246 12.6009 7.8339 12.8256C8.03535 13.0502 8.30857 13.1764 8.59346 13.1764H27.9285C28.2134 13.1764 28.4866 13.0502 28.688 12.8256C28.8895 12.6009 29.0026 12.2962 29.0026 11.9785C29.0026 11.6609 28.8895 11.3562 28.688 11.1315C28.4866 10.9069 28.2134 10.7807 27.9285 10.7807H8.59346ZM8.59346 20.3635C8.30857 20.3635 8.03535 20.4897 7.8339 20.7144C7.63246 20.939 7.51929 21.2437 7.51929 21.5614C7.51929 21.8791 7.63246 22.1838 7.8339 22.4084C8.03535 22.6331 8.30857 22.7593 8.59346 22.7593H27.9285C28.2134 22.7593 28.4866 22.6331 28.688 22.4084C28.8895 22.1838 29.0026 21.8791 29.0026 21.5614C29.0026 21.2437 28.8895 20.939 28.688 20.7144C28.4866 20.4897 28.2134 20.3635 27.9285 20.3635H8.59346Z" fill="white" stroke="white"/>
<path fill-rule="evenodd" clip-rule="evenodd" d="M0 10.7807C0 10.463 0.113171 10.1583 0.314616 9.93371C0.516062 9.70907 0.789281 9.58286 1.07417 9.58286H3.2225C3.50739 9.58286 3.78061 9.70907 3.98206 9.93371C4.1835 10.1583 4.29667 10.463 4.29667 10.7807V13.1764C4.29667 13.4941 4.1835 13.7988 3.98206 14.0234C3.78061 14.2481 3.50739 14.3743 3.2225 14.3743H1.07417C0.789281 14.3743 0.516062 14.2481 0.314616 14.0234C0.113171 13.7988 0 13.4941 0 13.1764V10.7807ZM1.07417 10.7807H3.2225V13.1764H1.07417V10.7807ZM1.07417 19.1657C0.789281 19.1657 0.516062 19.2919 0.314616 19.5166C0.113171 19.7412 0 20.0459 0 20.3636V22.7593C0 23.077 0.113171 23.3816 0.314616 23.6063C0.516062 23.8309 0.789281 23.9571 1.07417 23.9571H3.2225C3.50739 23.9571 3.78061 23.8309 3.98206 23.6063C4.1835 23.3816 4.29667 23.077 4.29667 22.7593V20.3636C4.29667 20.0459 4.1835 19.7412 3.98206 19.5166C3.78061 19.2919 3.50739 19.1657 3.2225 19.1657H1.07417ZM3.2225 20.3636H1.07417V22.7593H3.2225V20.3636Z" fill="white"/>
</svg>
